<?xml version="1.0" standalone="no"?><!DOCTYPE svg PUBLIC "-//W3C//DTD SVG 1.1//EN" "http://www.w3.org/Graphics/SVG/1.1/DTD/svg11.dtd"><svg t="1489909710275" class="icon" style="" viewBox="0 0 1449 1024" version="1.1" xmlns="http://www.w3.org/2000/svg" p-id="999" xmlns:xlink="http://www.w3.org/1999/xlink" width="181.125" height="128"><defs><style type="text/css"></style></defs><path d="M730.543927 31.994625l-12.729044 0c-262.321519 0-473.554846 211.233328-473.554846 473.554846l0 12.729044c0 262.321519 211.233328 473.554846 473.554846 473.554846l6.364522 0c262.321519 0 473.898875-200.224425 473.554846-475.274987l0.172014-4.644381C1204.270788 249.592474 992.865446 31.994625 730.543927 31.994625zM730.543927 928.016126l-12.729044 0c-127.978498 0-236.86343-57.624727-313.581724-147.244079 108.712918-76.718293 313.581724-76.718293 319.946246-76.718293 249.592474 0 313.581724 63.989249 319.946246 70.353771C967.235344 870.391399 852.157904 928.016126 730.543927 928.016126zM1133.745003 518.450529c0 76.718293-12.729044 147.244079-51.260205 211.233328-38.359147-31.994625-127.978498-83.254829-358.305392-83.254829-12.729044 0-230.326894 0-351.94087 89.619352-38.359147-63.989249-63.989249-134.34302-63.989249-217.59785l0-12.729044c0-223.962372 185.603225-409.565597 409.565597-409.565597l6.364522 0c223.962372 0 409.565597 185.603225 409.565597 409.565597L1133.745003 518.450529 1133.745003 518.450529z" p-id="1000" fill="#ffffff"></path><path d="M724.007391 179.238703c-115.249454 0-211.233328 95.983874-211.233328 211.233328S608.929951 601.533345 724.007391 601.533345 935.240719 505.549471 935.240719 390.472031 839.256845 179.238703 724.007391 179.238703zM724.007391 537.544095c-83.254829 0-147.244079-63.989249-147.244079-147.244079s63.989249-147.244079 147.244079-147.244079 147.244079 63.989249 147.244079 147.244079S807.262221 537.544095 724.007391 537.544095z" p-id="1001" fill="#ffffff"></path></svg>